<svg xmlns="http://www.w3.org/2000/svg" width="32" height="32" viewBox="0 0 32 32" fill="none">
  <g stroke="#168EA6" stroke-width="2.1" stroke-linecap="round" stroke-linejoin="round">
    <path d="M21.8 13.2c0-3.4-2.6-6.2-5.8-6.2s-5.8 2.8-5.8 6.2c0 2.2 1.1 4.1 2.8 5.2.8.5 1.2 1.4 1.2 2.3v.6h3.6v-.6c0-.9.5-1.8 1.2-2.3 1.7-1.1 2.8-3 2.8-5.2Z"/>
<path d="M13.8 24h4.4"/>
<path d="M14.5 27h3"/>
<path d="M16 1.8v2.4"/>
<path d="M6.8 5.6l1.7 1.7"/>
<path d="M25.2 5.6l-1.7 1.7"/>
<path d="M3 14h2.4"/>
<path d="M26.6 14H29"/>
  </g>
</svg>
