<svg xmlns="http://www.w3.org/2000/svg" viewBox="0 0 48 48" fill="none">
  <path d="M13.5 13h21c4.1 0 7.5 3.1 7.5 7v6.6c0 3.9-3.4 7-7.5 7H25l-8.3 5.5v-5.5h-3.2c-4.1 0-7.5-3.1-7.5-7V20c0-3.9 3.4-7 7.5-7Z" fill="#fff" stroke="#7C5CFF" stroke-width="2.8" stroke-linejoin="round"/>
  <path d="M15.4 28.8 19 19.2l3.6 9.6M16.6 25.7h4.8" stroke="#7C5CFF" stroke-width="2.1" stroke-linecap="round" stroke-linejoin="round"/>
  <path d="M26.5 19.5h4.1c1.9 0 3.1 1 3.1 2.5 0 1-.6 1.8-1.6 2.2 1.2.3 2 1.2 2 2.4 0 1.7-1.3 2.8-3.5 2.8h-4.1v-9.9Z" stroke="#7C5CFF" stroke-width="2" stroke-linecap="round" stroke-linejoin="round"/>
</svg>
