<svg xmlns="http://www.w3.org/2000/svg" width="96" height="96" viewBox="0 0 96 96" role="img" aria-labelledby="title desc">
  <title id="title">Chat Icon</title>
  <desc id="desc">Scharfes Linien-Icon mit zwei Sprechblasen für Kommunikation, ohne runden Rand.</desc>
  <path d="M31 38.5c0-7.2 6.3-13 14.1-13h8.2c7.8 0 14.1 5.8 14.1 13s-6.3 13-14.1 13h-6.9L36.8 58v-7.1C33.3 48.7 31 44.1 31 38.5Z"
        fill="none" stroke="#5A5DEB" stroke-width="5" stroke-linejoin="round" stroke-linecap="round"/>
  <path d="M29.5 48.7c-3.9 2.1-6.5 5.9-6.5 10.3 0 6.4 5.6 11.5 12.5 11.5h5.1l8.2 5.5v-6.1c4.6-1.7 7.8-5.8 7.8-10.9"
        fill="none" stroke="#5A5DEB" stroke-width="5" stroke-linejoin="round" stroke-linecap="round"/>
  <circle cx="43" cy="39" r="2.3" fill="#5A5DEB"/>
  <circle cx="53" cy="39" r="2.3" fill="#5A5DEB"/>
</svg>
