<svg width="64" height="64" viewBox="0 0 64 64" fill="none" xmlns="http://www.w3.org/2000/svg" role="img" aria-labelledby="title desc">
  <title id="title">Crown icon</title>
  <desc id="desc">A clean yellow crown icon with transparent background.</desc>
  <path d="M13.5 47.5H50.5" stroke="#F6B20A" stroke-width="3" stroke-linecap="round" opacity="0.32"/>
  <path d="M15.2 22.8C15.8 21.6 17.5 21.7 18 22.9L24.5 37.8L30.7 18.9C31.1 17.5 32.9 17.5 33.3 18.9L39.5 37.8L46 22.9C46.5 21.7 48.2 21.6 48.8 22.8L55.2 35.3C55.8 36.4 55.1 37.8 53.8 38L43.2 39.6H20.8L10.2 38C8.9 37.8 8.2 36.4 8.8 35.3L15.2 22.8Z" fill="#FFC21A"/>
  <path d="M15.2 22.8C15.8 21.6 17.5 21.7 18 22.9L24.5 37.8L30.7 18.9C31.1 17.5 32.9 17.5 33.3 18.9L39.5 37.8L46 22.9C46.5 21.7 48.2 21.6 48.8 22.8L55.2 35.3C55.8 36.4 55.1 37.8 53.8 38L43.2 39.6H20.8L10.2 38C8.9 37.8 8.2 36.4 8.8 35.3L15.2 22.8Z" stroke="#F4A000" stroke-width="2.5" stroke-linejoin="round"/>
  <path d="M18.7 39.6H45.3C46.8 39.6 48 40.8 48 42.3V45.5C48 46.6 47.1 47.5 46 47.5H18C16.9 47.5 16 46.6 16 45.5V42.3C16 40.8 17.2 39.6 18.7 39.6Z" fill="#FFC21A" stroke="#F4A000" stroke-width="2.5"/>
  <circle cx="16.6" cy="21.1" r="3.2" fill="#FFC21A" stroke="#F4A000" stroke-width="2.3"/>
  <circle cx="32" cy="17.1" r="3.2" fill="#FFC21A" stroke="#F4A000" stroke-width="2.3"/>
  <circle cx="47.4" cy="21.1" r="3.2" fill="#FFC21A" stroke="#F4A000" stroke-width="2.3"/>
</svg>
