<svg xmlns="http://www.w3.org/2000/svg" viewBox="0 0 64 64" role="img" aria-labelledby="title desc">
  <title id="title">Crown icon</title>
  <desc id="desc">A clean golden crown icon with transparent background.</desc>
  <g fill="none" fill-rule="evenodd">
    <path fill="#FFC107" d="M15.25 41.1 11.65 22.4c-.34-1.76 1.8-2.92 3.05-1.64l9.72 9.94 5.82-16.5c.58-1.63 2.9-1.63 3.48 0l5.86 16.5 9.72-9.94c1.25-1.28 3.39-.12 3.05 1.64l-3.6 18.7a2.7 2.7 0 0 1-2.66 2.2H17.91a2.7 2.7 0 0 1-2.66-2.2Z"/>
    <rect width="36" height="7.5" x="14" y="46" fill="#FFC107" rx="2.5"/>
    <path fill="#F2A900" d="M15.2 50.6h33.6c.66 0 1.2.54 1.2 1.2v.5c0 .66-.54 1.2-1.2 1.2H15.2c-.66 0-1.2-.54-1.2-1.2v-.5c0-.66.54-1.2 1.2-1.2Z" opacity=".55"/>
    <path fill="#FFE082" d="M31.38 15.27c.22-.64 1.12-.64 1.35 0l5.7 16.07 1.04 2.92-2.18-2.24-4.28-12.08c-.34-.95-1.68-.95-2.02 0l-4.28 12.08-2.18 2.24 1.04-2.92 5.81-16.07Z" opacity=".9"/>
  </g>
</svg>
